<svg id="Capa_1" data-name="Capa 1" xmlns="http://www.w3.org/2000/svg" viewBox="0 0 511.75 512"><defs><style>.cls-1{fill:#994c0f;}.cls-2{fill:#713708;}.cls-3{fill:#fd003a;}.cls-4{fill:#e50027;}.cls-5{fill:#e1e4fb;}.cls-6{fill:#1de8f1;}.cls-7{fill:#c5c9f7;}.cls-8{fill:#1bd9de;}.cls-9{fill:#bf6015;}</style></defs><title>barn</title><path class="cls-1" d="M511.39,253.27l-30-119.94a13.7,13.7,0,0,0-6.9-9.29L264.62,2.1a14.43,14.43,0,0,0-15,0L37.49,124a13.7,13.7,0,0,0-6.9,9.3L.61,253.27A14.84,14.84,0,0,0,15,271.86H75a14.77,14.77,0,0,0,14.39-11.09l20.69-75.26L257.12,103,402,185.51l20.69,75.26A14.77,14.77,0,0,0,437,271.86h60A14.84,14.84,0,0,0,511.39,253.27Z" transform="translate(-0.13)"/><path class="cls-2" d="M497,271.86H437a14.77,14.77,0,0,1-14.39-11.09L402,185.51,257.12,103V0a14.23,14.23,0,0,1,7.5,2.1L474.51,124a13.7,13.7,0,0,1,6.9,9.3l30,119.94A14.84,14.84,0,0,1,497,271.86Z" transform="translate(-0.13)"/><path class="cls-3" d="M429.23,171.71a14.06,14.06,0,0,0-6.9-9l-157.72-90a14.43,14.43,0,0,0-15,0l-160,90a14.05,14.05,0,0,0-6.9,9c-.6,2.7-22.79,82.46-22.79,85.16V496.75a14.85,14.85,0,0,0,15,15H437a14.85,14.85,0,0,0,15-15V256.87C452,254.17,429.83,174.41,429.23,171.71Z" transform="translate(-0.13)"/><path class="cls-4" d="M452,256.87V496.75a14.85,14.85,0,0,1-15,15H257.12V70.66a17.71,17.71,0,0,1,7.5,2.1l157.72,90a14.05,14.05,0,0,1,6.9,9C429.83,174.41,452,254.17,452,256.87Z" transform="translate(-0.13)"/><path class="cls-5" d="M149.93,316.84v194.9H362.07V316.84Z" transform="translate(-0.13)"/><path class="cls-5" d="M317.09,181.91H194.91a14.85,14.85,0,0,0-15,15v60a14.85,14.85,0,0,0,15,15H317.09a14.85,14.85,0,0,0,15-15v-60A14.85,14.85,0,0,0,317.09,181.91Z" transform="translate(-0.13)"/><rect class="cls-6" x="209.78" y="211.89" width="92.19" height="29.99"/><path class="cls-7" d="M317.09,271.86h-60v-90h60a14.85,14.85,0,0,1,15,15v60A14.85,14.85,0,0,1,317.09,271.86Z" transform="translate(-0.13)"/><rect class="cls-8" x="256.99" y="211.89" width="44.98" height="29.99"/><rect class="cls-7" x="256.99" y="316.84" width="104.95" height="194.9"/><path class="cls-5" d="M377.06,331.83H134.94c-19.79,0-19.79-30,0-30H377.06C396.85,301.85,396.85,331.83,377.06,331.83Z" transform="translate(-0.13)"/><path class="cls-7" d="M377.06,331.83H257.12v-30H377.06C396.85,301.85,396.85,331.83,377.06,331.83Z" transform="translate(-0.13)"/><rect class="cls-9" x="179.79" y="331.83" width="152.16" height="179.91"/><rect class="cls-1" x="256.99" y="331.83" width="74.96" height="179.91"/><path class="cls-5" d="M336.58,507.25l-79.46-79.46-81.7,79.06c-12.89,14.39-35.68-6.8-21-20.59l81.7-79.46-81.7-79.46a14.06,14.06,0,0,1-4.5-10.49h36l71.21,69,69-69h36a14.06,14.06,0,0,1-4.5,10.49L278.11,406.8l79.46,79.46C372.27,500.05,349.48,521.64,336.58,507.25Z" transform="translate(-0.13)"/><path class="cls-7" d="M336.58,507.25l-79.46-79.46v-42l69-69h36a14.06,14.06,0,0,1-4.5,10.49L278.11,406.8l79.46,79.46C372.27,500.05,349.48,521.64,336.58,507.25Z" transform="translate(-0.13)"/></svg>