<?xml version="1.0" encoding="utf-8"?>
<!-- Generator: Adobe Illustrator 21.1.0, SVG Export Plug-In . SVG Version: 6.00 Build 0)  -->
<svg version="1.1" id="Layer_1" xmlns="http://www.w3.org/2000/svg" xmlns:xlink="http://www.w3.org/1999/xlink" x="0px" y="0px"
	 viewBox="0 0 512 512" style="enable-background:new 0 0 512 512;" xml:space="preserve">
<style type="text/css">
	.st0{fill:#B9DDF9;}
	.st1{fill:#ADD37F;}
	.st2{fill:#7CB142;}
	.st3{fill:#FFDF81;}
	.st4{fill:#FDF9E2;}
	.st5{fill:#F7F4C4;}
	.st6{fill:#EBEDB1;fill-opacity:0.902;}
	.st7{fill:#674B46;}
	.st8{fill:#442D2A;}
	.st9{fill:#F4ED93;}
	.st10{fill:#D1796E;}
	.st11{fill:#BA645B;}
	.st12{fill:#E87464;}
	.st13{fill:#E8503F;}
	.st14{fill:#82BF72;}
	.st15{fill:#FFFFFF;}
	.st16{fill:#DFDFDF;}
	.st17{fill:#FFB100;}
	.st18{fill:#FFE900;}
	.st19{fill:#FFD500;}
	.st20{fill:#FFFF00;}
	.st21{fill:#4D4D4D;}
	.st22{fill:#606060;}
	.st23{fill:#747474;}
	.st24{fill:#424242;}
	.st25{fill:#FF6E40;}
	.st26{fill:#FF3C00;}
	.st27{fill:#202020;}
	.st28{fill:#FF9D7F;}
	.st29{fill:#E5E5E5;}
	.st30{fill:#FFED58;}
	.st31{fill:#F9BF2C;}
</style>
<path class="st0" d="M256-104c198.8,0,360,161.2,360,360c0,198.8-161.2,360-360,360c-198.8,0-360-161.2-360-360
	C-104,57.2,57.2-104,256-104z"/>
<path class="st1" d="M-100.2,291.5c75-96,143-179.4,216.3-241.2c18.1-15.3,50.7-16.3,71.5-5.5c139.4,72,197.6,146.7,236.1,222.1
	C249.1,275.1,74.5,283.3-100.2,291.5z"/>
<path class="st2" d="M167.9,38.5c7.1,1.1,13.9,3.2,19.8,6.2c139.4,72,197.6,146.7,236.1,222.1l-231.6,10.9c0,0-15.9-24.1-54.2-60.8
	c-38.3-36.7,74.7-32.7,39.8-83.3C142.8,83.2,167.9,38.5,167.9,38.5z"/>
<path class="st1" d="M136,306.9c44.8-94.2,100.2-189.7,245.7-296.1c19.2-14,44.2-14.6,59.7-1.3C558.1,109.3,600.7,218,608.2,330.8
	c-1.7,8.1-3.7,16.1-5.9,24L136,306.9z"/>
<path class="st2" d="M413-0.1c10.6-0.2,20.7,3,28.5,9.6C558.1,109.3,600.7,218,608.2,330.8c-1.7,8.1-3.7,16.1-5.9,24l-245.7-25.2
	c-49.2-59.6,0.7-90.6,12.6-90.6c13.7,0,99.7-74.3,40.7-105.7S413-0.1,413-0.1z"/>
<path class="st3" d="M-102.2,292.3c56.2-10.9,358.8-63.6,717.1-8.5C600.7,469.6,445.5,616,256,616C69.4,616-84,474.1-102.2,292.3z"
	/>
<g>
	<polygon class="st4" points="-42,251.9 -37.9,247.5 -33.4,249.7 -31,294.5 -39.6,296.7 	"/>
	<polygon class="st4" points="-60.2,256.5 -56.1,252.2 -51.6,254.3 -49.3,299.1 -57.8,301.3 	"/>
	<polygon class="st4" points="-78.7,261.2 -74.6,256.9 -70.2,259.1 -67.8,303.9 -76.4,306 	"/>
	<polygon class="st4" points="-97.3,266 -93.2,261.7 -88.7,263.8 -86.3,308.6 -94.9,310.8 	"/>
	<polygon class="st4" points="-26.7,260 -103.2,279.6 -103.4,276.7 -26.9,257.2 	"/>
	<polygon class="st4" points="-25.7,278.9 -101.5,298.3 -101.8,295.5 -25.9,276.1 	"/>
	<g>
		<polygon class="st4" points="294.6,219.7 298.8,216.6 303.1,220.1 303.7,266 295.2,265.5 		"/>
		<polygon class="st4" points="276.5,218.6 280.7,215.6 285,219.1 285.6,264.9 277.1,264.5 		"/>
		<polygon class="st4" points="258.1,217.6 262.3,214.5 266.6,218.1 267.3,263.9 258.8,263.4 		"/>
		<polygon class="st4" points="239.7,216.5 243.9,213.5 248.2,217 248.9,262.9 240.4,262.4 		"/>
		<polygon class="st4" points="221,215.5 225.3,212.4 229.6,216 230.2,261.8 221.7,261.3 		"/>
		<polygon class="st4" points="309.3,232.7 224.2,227.8 224.1,224.9 309.2,229.8 		"/>
		<polygon class="st4" points="309.5,252 224.4,247.1 224.4,244.2 309.5,249.1 		"/>
	</g>
	<polygon class="st4" points="603.4,244.4 607.6,241.6 611.9,245.5 612.6,291.4 604.1,290.3 	"/>
	<polygon class="st4" points="585.1,242 589.3,239.2 593.6,243.1 594.2,289 585.7,287.9 	"/>
	<polygon class="st4" points="566.7,239.6 570.9,236.9 575.2,240.7 575.8,286.6 567.3,285.5 	"/>
	<polygon class="st4" points="548,237.2 552.2,234.5 556.5,238.3 557.1,284.2 548.6,283.1 	"/>
	<path class="st4" d="M616,258.2l-64.9-8.4l0-2.9l64.9,8.4v0.7C616,256.7,616,257.4,616,258.2z"/>
	<path class="st4" d="M615.4,277.4l-64-8.3l0-2.9l64.2,8.3C615.5,275.5,615.4,276.4,615.4,277.4z"/>
</g>
<g>
	<polygon class="st5" points="468.6,285.1 468.6,186.3 373.8,102.2 279.5,186.3 279.5,285.5 	"/>
	<path class="st6" d="M352.9,153.8c22.4,2.9,43.9,8.9,64.8,17.7c18.1,7.6,35.3,17.3,51.3,28.7v-13.9l-97.7-84.1l-74.8,64.7
		C314.7,158.9,331.4,151,352.9,153.8z"/>
	<polygon class="st7" points="374.1,97.1 263.2,186.3 280.5,186.3 374.1,111.9 	"/>
	<polygon class="st8" points="374.1,97.1 484.9,186.3 467.7,186.3 374.1,111.9 	"/>
	<polygon class="st9" points="351.3,259.7 295.8,259.7 295.8,201.8 351.3,201.8 	"/>
	<path class="st10" d="M320.5,200.7c0,0,0.5,10.2-5.5,19.9c-6,9.7-11.6,12.8-11.6,12.8s5.7,6,7.2,12c1.5,6,3.2,15.4,3.2,15.4h-16.6
		l-1.5-60.2L320.5,200.7L320.5,200.7z"/>
	<g>
		<path class="st11" d="M311.2,213.8c0,0-6.8,18.8-9.3,18.7C299.3,232.3,311.2,213.8,311.2,213.8z"/>
		<path class="st11" d="M301.5,213.8c0,0-0.1,18.6-1.4,18.7C298.8,232.5,301.5,213.8,301.5,213.8z"/>
		<path class="st11" d="M302.3,255.6c0,0-4.1-19.6-1.9-20.8C302.7,233.7,302.3,255.6,302.3,255.6z"/>
		<path class="st11" d="M310.6,250.5c0,0-9.6-15.9-8.6-16.6C303,233.2,310.6,250.5,310.6,250.5z"/>
	</g>
	<path class="st10" d="M326.8,200.7c0,0-0.5,10.2,5.5,19.9c6,9.7,11.6,12.8,11.6,12.8s-5.7,6-7.2,12c-1.5,6-3.2,15.4-3.2,15.4h16.6
		l1.5-60.2L326.8,200.7L326.8,200.7z"/>
	<g>
		<path class="st11" d="M336.1,213.8c0,0,6.8,18.8,9.3,18.7C348,232.3,336.1,213.8,336.1,213.8z"/>
		<path class="st11" d="M345.8,213.8c0,0,0.2,18.6,1.4,18.7C348.5,232.5,345.8,213.8,345.8,213.8z"/>
		<path class="st11" d="M345,255.6c0,0,4.1-19.6,1.9-20.8C344.6,233.7,345,255.6,345,255.6z"/>
		<path class="st11" d="M336.8,250.5c0,0,9.7-15.9,8.6-16.6C344.4,233.2,336.8,250.5,336.8,250.5z"/>
	</g>
	<path class="st7" d="M293.4,199.5V262h60.3v-62.6H293.4z M349,257.4L349,257.4h-24.2v-26.6h-4.1v26.6h-22.6v-26.6h22.6v-4.1h-22.6
		v-22.5H349L349,257.4L349,257.4z"/>
	<g>
		<path class="st8" d="M293.8,199.5c1.8,1.3,3.3,3.1,4.3,5.1v-0.4h22.6v26.6h1.6h2.5h24.6l0.1-4.1l-24.7,0v-22.5H349v53.3h-1.2
			c2.2,1.1,4,2.7,5.3,4.7h0.5v-62.6H293.8z"/>
		<polygon class="st8" points="422,285.5 374,285.5 374,197 422,197 		"/>
	</g>
	<polygon class="st7" points="418.5,285.5 377.3,285.5 377.3,200.7 418.5,200.7 	"/>
	<g>
		<polygon class="st8" points="388.6,245.2 381,245.2 381,204 388.6,204 		"/>
		<polygon class="st8" points="397.3,245.2 389.6,245.2 389.6,204 397.3,204 		"/>
		<polygon class="st8" points="405.9,245.2 398.2,245.2 398.2,204 405.9,204 		"/>
		<polygon class="st8" points="414.5,245.2 406.8,245.2 406.8,204 414.5,204 		"/>
		<polygon class="st8" points="388.6,281.4 381,281.4 381,250.5 388.6,250.5 		"/>
		<polygon class="st8" points="397.3,281.4 389.6,281.4 389.6,250.5 397.3,250.5 		"/>
		<polygon class="st8" points="405.9,281.4 398.2,281.4 398.2,250.5 405.9,250.5 		"/>
		<polygon class="st8" points="414.5,281.4 406.8,281.4 406.8,250.5 414.5,250.5 		"/>
	</g>
	<g>
		<path class="st12" d="M439.9,236.1c0,1-0.8,1.8-1.8,1.8c-1,0-1.8-0.8-1.8-1.8c0-1,0.8-1.8,1.8-1.8
			C439.1,234.3,439.9,235.1,439.9,236.1z"/>
		<path class="st12" d="M451.3,233.6c0,1-0.8,1.8-1.8,1.8c-1,0-1.8-0.8-1.8-1.8c0-1,0.8-1.8,1.8-1.8
			C450.5,231.8,451.3,232.6,451.3,233.6z"/>
		<path class="st12" d="M447.3,237.6c0,1-0.8,1.8-1.8,1.8c-1,0-1.8-0.8-1.8-1.8c0-1,0.8-1.8,1.8-1.8
			C446.5,235.8,447.3,236.6,447.3,237.6z"/>
		<path class="st12" d="M457.8,238.1c0,1-0.8,1.8-1.8,1.8c-1,0-1.8-0.8-1.8-1.8c0-1,0.8-1.8,1.8-1.8
			C457,236.3,457.8,237.1,457.8,238.1z"/>
		<path class="st12" d="M435.3,237.6c0,1-0.8,1.8-1.8,1.8s-1.8-0.8-1.8-1.8c0-1,0.8-1.8,1.8-1.8
			C434.5,235.8,435.3,236.6,435.3,237.6z"/>
	</g>
	<g>
		<path class="st13" d="M442.1,233.9c0,0.6-0.5,1.1-1.1,1.1s-1.1-0.5-1.1-1.1c0-0.6,0.5-1.1,1.1-1.1S442.1,233.3,442.1,233.9z"/>
		<path class="st13" d="M442,238.9c0,0.6-0.5,1.1-1.1,1.1c-0.6,0-1.1-0.5-1.1-1.1c0-0.6,0.5-1.1,1.1-1.1
			C441.5,237.8,442,238.3,442,238.9z"/>
		<path class="st13" d="M452.4,236.5c0,0.6-0.5,1.1-1.1,1.1c-0.6,0-1.1-0.5-1.1-1.1c0-0.6,0.5-1.1,1.1-1.1
			C451.9,235.5,452.4,236,452.4,236.5z"/>
		<path class="st13" d="M460.4,238.7c0,0.6-0.5,1.1-1.1,1.1c-0.6,0-1.1-0.5-1.1-1.1c0-0.6,0.5-1.1,1.1-1.1
			C459.9,237.6,460.4,238.1,460.4,238.7z"/>
	</g>
	<g>
		<polygon class="st14" points="433.8,240.9 433.5,238.4 433.3,240.9 		"/>
		<polygon class="st14" points="438,236.3 437.6,240.4 438.1,240.4 		"/>
		<polygon class="st14" points="440.9,238.9 441,240.7 440.6,240.7 		"/>
		<polygon class="st14" points="441,233.9 441.2,237.5 440.9,237.5 		"/>
		<polygon class="st14" points="445.5,237.5 445.2,240.4 445.8,240.4 		"/>
		<polygon class="st14" points="449.5,233.6 448.8,240.4 449.8,240.4 		"/>
		<polygon class="st14" points="451.7,240.7 451,240.7 451.3,237.1 		"/>
		<polygon class="st14" points="455.9,238 455.8,240.7 456.1,240.7 		"/>
		<polygon class="st14" points="459.3,238.7 459.6,240.7 459.3,240.7 		"/>
	</g>
	<g>
		<polygon class="st8" points="463.6,242.3 429.6,242.3 429.6,240.4 463.6,240.4 		"/>
		<polygon class="st8" points="462.7,252 430.6,252 430.6,241.6 462.7,241.6 		"/>
	</g>
	<polygon class="st7" points="460.7,250.5 432.6,250.5 432.6,243.1 460.7,243.1 	"/>
	<g>
		<polygon class="st8" points="436.3,251.5 434.9,251.5 434.9,241.6 436.3,241.6 		"/>
		<polygon class="st8" points="439.1,251.5 437.7,251.5 437.7,241.6 439.1,241.6 		"/>
		<polygon class="st8" points="441.9,251.5 440.5,251.5 440.5,241.6 441.9,241.6 		"/>
		<polygon class="st8" points="444.6,251.5 443.2,251.5 443.2,241.6 444.6,241.6 		"/>
		<polygon class="st8" points="447.4,251.5 446,251.5 446,241.6 447.4,241.6 		"/>
		<polygon class="st8" points="450.2,251.5 448.8,251.5 448.8,241.6 450.2,241.6 		"/>
		<polygon class="st8" points="453,251.5 451.6,251.5 451.6,241.6 453,241.6 		"/>
		<polygon class="st8" points="455.8,251.5 454.4,251.5 454.4,241.6 455.8,241.6 		"/>
		<polygon class="st8" points="458.5,251.5 457.1,251.5 457.1,241.6 458.5,241.6 		"/>
	</g>
	<g>
		<polygon class="st4" points="-13.8,244.4 -18,242.2 -22.3,246.5 -22.9,292.5 -14.5,290.4 		"/>
		<polygon class="st4" points="4.3,239.9 0.1,237.6 -4.2,242 -4.9,288 3.6,285.8 		"/>
		<polygon class="st4" points="22.6,235.3 18.5,233 14.2,237.4 13.5,283.4 22,281.2 		"/>
		<polygon class="st4" points="41,230.7 36.8,228.4 32.5,232.8 31.9,278.8 40.4,276.6 		"/>
		<polygon class="st4" points="59.7,226 55.5,223.8 51.2,228.1 50.6,274.1 59.1,272 		"/>
		<polygon class="st4" points="-28.5,260.2 56.6,238.9 56.7,236 -28.5,257.3 		"/>
		<polygon class="st4" points="-28.8,279.6 56.3,258.3 56.4,255.4 -28.7,276.7 		"/>
		<polygon class="st4" points="128,221.7 132.1,218.2 136.6,221.1 138.9,266.4 130.4,266.9 		"/>
		<polygon class="st4" points="109.8,222.8 113.9,219.3 118.3,222.3 120.7,267.5 112.1,268.1 		"/>
		<polygon class="st4" points="91.2,223.9 95.4,220.4 99.8,223.4 102.2,268.7 93.6,269.2 		"/>
		<polygon class="st4" points="72.7,225.1 76.8,221.6 81.3,224.6 83.6,269.8 75.1,270.3 		"/>
		<polygon class="st4" points="53.9,226.3 58,222.7 62.4,225.7 64.8,271 56.2,271.5 		"/>
		<polygon class="st4" points="143.3,232.8 57.5,238.1 57.3,235.2 143.1,229.9 		"/>
		<polygon class="st4" points="144.3,251.9 58.4,257.2 58.3,254.3 144.1,249 		"/>
		<polygon class="st4" points="156.2,219.7 152,216.6 147.7,220.1 147.1,266 155.5,265.5 		"/>
		<polygon class="st4" points="174.3,218.6 170.1,215.6 165.8,219.1 165.1,264.9 173.6,264.5 		"/>
		<polygon class="st4" points="192.6,217.6 188.4,214.5 184.2,218.1 183.5,263.9 192,263.4 		"/>
		<polygon class="st4" points="211,216.5 206.8,213.5 202.5,217 201.9,262.9 210.4,262.4 		"/>
		<polygon class="st4" points="229.7,215.5 225.5,212.4 221.2,216 220.6,261.8 229.1,261.3 		"/>
		<polygon class="st4" points="141.5,232.7 226.6,227.8 226.7,224.9 141.5,229.8 		"/>
		<polygon class="st4" points="141.2,252 226.3,247.1 226.4,244.2 141.3,249.1 		"/>
		<polygon class="st4" points="474.5,229.6 470.3,225.8 466,228.7 465.3,274.4 473.8,275.3 		"/>
		<polygon class="st4" points="492.5,231.4 488.3,227.7 484.1,230.6 483.4,276.3 491.9,277.2 		"/>
		<polygon class="st4" points="510.9,233.3 506.7,229.6 502.4,232.5 501.8,278.2 510.3,279.1 		"/>
		<polygon class="st4" points="529.3,235.3 525.1,231.5 520.8,234.4 520.2,280.1 528.7,281 		"/>
		<polygon class="st4" points="548,237.2 543.8,233.5 539.5,236.3 538.8,282.1 547.3,282.9 		"/>
		<polygon class="st4" points="459.8,240.2 544.9,249 544.9,246.1 459.8,237.3 		"/>
		<polygon class="st4" points="459.5,259.5 544.6,268.3 544.6,265.4 459.5,256.6 		"/>
	</g>
</g>
<path class="st15" d="M168.6-44.2c5.5,0,10.7,1.2,15.4,3.3c5-4.4,11.8-7.1,19.4-7.1c13.1,0,24,8.1,27,19c6.5,1.8,11.8,6.2,14.2,11.8
	c0.8-0.1,1.6-0.1,2.4-0.1c12.1,0,21.9,8.7,21.9,19.5s-9.8,19.5-21.9,19.5c-3.8,0-7.3-0.8-10.4-2.3c-2.7,8.1-11.1,14.1-21,14.1
	c-6.1,0-11.6-2.2-15.5-5.8c-4,3.6-9.5,5.8-15.5,5.8c-5.8,0-11-2-14.9-5.3c-4,3.9-9.8,6.4-16.1,6.4c-6,0-11.4-2.1-15.4-5.6
	c-1.8,0.4-3.7,0.5-5.6,0.5c-14.4,0-26.1-10.4-26.1-23.3c0-12.9,11.7-23.3,26.1-23.3c0.8,0,1.6,0,2.3,0.1
	C136.6-32.3,151.1-44.2,168.6-44.2z"/>
<path class="st16" d="M268.8,3.3c-0.6,10.3-10.2,18.5-21.8,18.5c-3.8,0-7.3-0.8-10.4-2.3c-2.7,8.1-11.1,14.1-21,14.1
	c-6.1,0-11.6-2.2-15.5-5.8c-4,3.6-9.5,5.8-15.5,5.8c-5.8,0-11-2-14.9-5.3c-4,3.9-9.8,6.4-16.1,6.4c-6,0-11.4-2.1-15.4-5.6
	c-1.8,0.4-3.7,0.5-5.6,0.5c-14.4,0-26.1-10.4-26.1-23.3c0-1.4,0.1-2.8,0.4-4.1c0,0.5-0.1,1-0.1,1.5c0,12.9,11.7,23.3,26.1,23.3
	c1.9,0,3.8-0.2,5.6-0.5c4,3.5,9.4,5.6,15.4,5.6c6.4,0,12.1-2.5,16.1-6.4c3.9,3.3,9.2,5.3,14.9,5.3c6.1,0,11.6-2.2,15.5-5.8
	c4,3.6,9.5,5.8,15.5,5.8c9.9,0,18.3-5.9,21-14.1c3.1,1.5,6.6,2.3,10.4,2.3C258,19.2,266.9,12.3,268.8,3.3z M187.8-6
	c-27.4-2.5-29.4,22.7-8.1,27.3c19.2,4.1,26.6-14.3,10.5-19.8c-14.2-5-22,8.3-11,13c7.7,3.2,13.5-2.7,8.9-5.9
	c-2.4-1.7-4.3,0.2-5.6-1.7c4.6-5,15.9,4,7.6,9.1c-10.1,6.2-26.5-7.1-14.5-15c11.6-7.7,32.9,5,23.6,16.8C189.6,30,161,21.1,163.2,5.4
	c2.6-18.3,39.7-17.5,47.9,2.8c0.9,2.2,2,7.4-0.1,9c-0.6-0.1-0.8-4.3-1-5.3C208.3,2.9,200-4.1,187.8-6z M156.8-36.3
	c18-6.6,29.9,12.6,17,19.8c-11.6,6.5-24.4-6.5-15.6-13.6c7.8-6.2,18.8,2.7,13.1,8.2c-4,3.8-10.5,0.2-8.6-3.1c1-1.7,3.1-0.6,3.2-2.3
	c-5.3-3.1-9.4,5.8-1.5,8.3c9.6,3.1,15.5-9.9,3.9-14c-11.3-4-20.8,9.5-9.5,16.9c11.7,7.8,27.9-3.9,19.8-15.7
	c-9.4-13.7-35-6.9-32.2,10.2c0.3,1.8,1.7,6.1,3.8,7c0.4-0.2-1.3-3.5-1.5-4.3C146.2-25.9,149-32.7,156.8-36.3z M114.6-6.6
	c-15.1,17.1,6.7,36.5,20.8,25.1C148,8.2,135-10,122.4-2.9c-11.1,6.3-2.8,21.2,6.5,16.9c6.5-3,3.9-11.2-1.2-10.3
	c-2.7,0.5-1.9,3.1-4.1,2.7c-2.4-6.7,11.1-8.1,11.7,1.3c0.8,11.4-18.7,13.3-20.2-0.7c-1.5-13.5,19.9-19.1,26.1-4.3
	c6.4,15.3-14.9,28.7-27.9,15.9c-15.2-14.8,2.8-40,24.9-31.1c2.3,0.9,7.6,3.9,8,6.5c-0.4,0.4-4.2-2.5-5.2-3.1
	C132.2-14.4,122-13.7,114.6-6.6z M217.1-40.5c-18.6-6.8-30.9,13-17.5,20.4c12,6.6,25.2-6.7,16.1-14c-8.1-6.4-19.4,2.8-13.5,8.4
	c4.1,3.9,10.8,0.2,8.9-3.1c-1-1.8-3.2-0.6-3.3-2.3c5.4-3.2,9.7,6,1.5,8.6c-9.9,3.2-16-10.2-4-14.5c11.6-4.1,21.4,9.7,9.8,17.5
	c-12.1,8-28.8-4-20.5-16.2c9.7-14.1,36.1-7.1,33.2,10.6c-0.3,1.9-1.8,6.2-4,7.2c-0.4-0.2,1.3-3.6,1.6-4.4
	C227.9-29.8,225-36.8,217.1-40.5z M258.3-8.6c12.8,13.4-5.6,28.5-17.6,19.6c-10.7-8,0.3-22.2,10.9-16.7c9.4,4.9,2.4,16.5-5.5,13.1
	c-5.5-2.3-3.3-8.8,1-8c2.3,0.4,1.6,2.4,3.5,2.1c2-5.3-9.4-6.3-9.9,1c-0.7,8.9,15.8,10.3,17.1-0.5c1.3-10.5-16.8-14.9-22.1-3.4
	C230.3,10.5,248.4,21,259.4,11c12.8-11.6-2.4-31.2-21-24.3c-2,0.7-6.4,3.1-6.8,5.1c0.4,0.3,3.6-2,4.4-2.4
	C243.4-14.6,252-14.1,258.3-8.6z"/>
<path class="st17" d="M263.8,299.8c8,0,14.4,2,14.4,4.3s-6.5,4.3-14.4,4.3c-8,0-14.4-1.9-14.4-4.3
	C249.3,301.7,255.8,299.8,263.8,299.8z M395.7,587.9c-8.9,3.8-18,7.1-27.3,10.2h-0.3c-15.4,0-27.9-5.4-27.9-12
	c0-6.6,12.5-12,27.9-12c15.4,0,27.9,5.4,27.9,12C396,586.7,395.9,587.3,395.7,587.9z M1.8,410.9c4.4,0,7.9,3.9,7.9,8.7
	s-3.5,8.7-7.9,8.7c-4.4,0-7.9-3.9-7.9-8.7S-2.6,410.9,1.8,410.9z M231.3,408c2.8,0,5.1-0.3,5.1-0.7c0-0.4-2.3-0.7-5.1-0.7
	c-2.8,0-5.1,0.3-5.1,0.7C226.2,407.7,228.5,408,231.3,408z M309.9,412.4c8.8,0,15.9,4.8,15.9,10.8c0,6-7.1,10.8-15.9,10.8
	c-8.8,0-15.9-4.8-15.9-10.8C294.1,417.2,301.2,412.4,309.9,412.4z M405.9,439.8c10,0,18,4.2,18,9.4c0,5.2-8.1,9.4-18,9.4
	c-10,0-18-4.2-18-9.4C387.9,444,396,439.8,405.9,439.8z M462.3,491.8c4.4,0,7.9,1.9,7.9,4.3c0,2.4-3.6,4.3-7.9,4.3s-7.9-1.9-7.9-4.3
	S457.9,491.8,462.3,491.8z M367,416.7c5.2,0,9.4,2.3,9.4,5.1c0,2.8-4.2,5.1-9.4,5.1c-5.2,0-9.4-2.3-9.4-5.1
	C357.6,418.9,361.8,416.7,367,416.7z M372.7,542.3c0.4,0,0.7,3.9,0.7,8.7c0,4.8-0.3,8.7-0.7,8.7s-0.7-3.9-0.7-8.7
	C372,546.2,372.4,542.3,372.7,542.3z M510.6,412.4c2.4,0,4.3,4.2,4.3,9.4c0,5.2-2,9.4-4.3,9.4s-4.3-4.2-4.3-9.4
	C506.3,416.6,508.2,412.4,510.6,412.4z M570.5,327.2c7.6,0,13.7,2.9,13.7,6.5s-6.1,6.5-13.7,6.5c-7.6,0-13.7-2.9-13.7-6.5
	S562.9,327.2,570.5,327.2z M400.9,318.5c14.4,0,26,4.8,26,10.8c0,6-11.6,10.8-26,10.8c-14.3,0-26-4.8-26-10.8
	C374.9,323.4,386.6,318.5,400.9,318.5z M239.9,444.1c8.4,0,15.2,3.2,15.2,7.2c0,4-6.8,7.2-15.2,7.2c-8.4,0-15.2-3.2-15.2-7.2
	S231.6,444.1,239.9,444.1z M167.8,526.4c4.4,0,7.9,1.9,7.9,4.3c0,2.4-3.6,4.3-7.9,4.3c-4.4,0-7.9-1.9-7.9-4.3
	C159.8,528.3,163.4,526.4,167.8,526.4z M33.5,422.5c3.6,0,6.5,1.6,6.5,3.6c0,2-2.9,3.6-6.5,3.6c-3.6,0-6.5-1.6-6.5-3.6
	C27,424.1,29.9,422.5,33.5,422.5z M-49.5,328.6c8.8,0,15.9,3.9,15.9,8.7c0,4.8-7.1,8.7-15.9,8.7c-8.8,0-15.9-3.9-15.9-8.7
	C-65.4,332.5-58.3,328.6-49.5,328.6z M97.8,301.2c4.8,0,8.7,2,8.7,4.3c0,2.4-3.9,4.3-8.7,4.3c-4.8,0-8.7-1.9-8.7-4.3
	C89.1,303.1,93,301.2,97.8,301.2z M395.1,377.7c7.2,0,13,4.2,13,9.4c0,5.2-5.8,9.4-13,9.4c-7.2,0-13-4.2-13-9.4
	C382.1,381.9,388,377.7,395.1,377.7z M481,340.2c12.4,0,22.4,3.2,22.4,7.2c0,4-10,7.2-22.4,7.2c-12.4,0-22.4-3.2-22.4-7.2
	C458.6,343.4,468.7,340.2,481,340.2z M245.7,535.1c4.4,0,7.9,6.5,7.9,14.4c0,8-3.6,14.4-7.9,14.4s-7.9-6.5-7.9-14.4
	C237.8,541.5,241.3,535.1,245.7,535.1z M332.3,483.1c2.8,0,5.1,7.4,5.1,16.6c0,9.2-2.3,16.6-5.1,16.6c-2.8,0-5-7.4-5-16.6
	C327.3,490.5,329.5,483.1,332.3,483.1z M432.7,451.3c4.8,0,8.7,3.2,8.7,7.2c0,4-3.9,7.2-8.7,7.2c-4.8,0-8.7-3.2-8.7-7.2
	C424,454.6,427.9,451.3,432.7,451.3z M484.6,363.3c9.6,0,17.3,6.1,17.3,13.7c0,7.6-7.8,13.7-17.3,13.7c-9.6,0-17.3-6.1-17.3-13.7
	C467.3,369.4,475.1,363.3,484.6,363.3z M149,360.4c5.2,0,9.4,3.2,9.4,7.2s-4.2,7.2-9.4,7.2c-5.2,0-9.4-3.2-9.4-7.2
	S143.8,360.4,149,360.4z M159.8,438.3c6.4,0,11.6-0.3,11.6-0.7s-5.2-0.7-11.6-0.7s-11.6,0.3-11.6,0.7
	C148.3,438,153.5,438.3,159.8,438.3z M75.4,480.2c10.8,0,19.5,4.2,19.5,9.4c0,5.2-8.7,9.4-19.5,9.4c-10.8,0-19.5-4.2-19.5-9.4
	C55.9,484.4,64.6,480.2,75.4,480.2z M288.3,350.3c12,0,21.6,7.1,21.6,15.9c0,8.8-9.7,15.9-21.6,15.9c-12,0-21.6-7.1-21.6-15.9
	C266.7,357.4,276.3,350.3,288.3,350.3z M187.3,318.5c10.4,0,18.8,4.5,18.8,10.1c0,5.6-8.4,10.1-18.8,10.1
	c-10.4,0-18.8-4.5-18.8-10.1C168.5,323.1,176.9,318.5,187.3,318.5z M22.7,348.8c19.9,0,36.1,6.5,36.1,14.4c0,8-16.2,14.4-36.1,14.4
	s-36.1-6.5-36.1-14.4C-13.4,355.3,2.8,348.8,22.7,348.8z"/>
<path class="st18" d="M282.1-48c0.3-0.8,0.7-1.6,1.4-2.4c5.6-6.7,15.3-3.6,15.3-3.6s-5.6,3.3-7.9,6c-1.2,1.3-1.3,2.8-1.3,4.1
	c0.5-0.7,1.1-1.3,2-2c7.1-5.1,15.7,0.5,15.7,0.5s-6.3,1.8-9.2,3.7c-1.5,1-2,2.4-2.3,3.6c0.6-0.5,1.4-1,2.5-1.4
	c8.2-3,15.1,4.5,15.1,4.5s-6.5,0.1-9.9,1.2c-1.7,0.6-2.5,1.8-3.2,2.9c0.7-0.4,1.6-0.6,2.7-0.7c8.7-0.8,13.4,8.3,13.4,8.3
	s-6.3-1.6-9.8-1.4c-1.8,0.1-2.9,1.1-3.8,2c0.8-0.2,1.7-0.2,2.8,0c8.6,1.5,10.8,11.5,10.8,11.5s-5.7-3.2-9.2-3.9
	c-1.8-0.4-3.1,0.3-4.2,0.9c0.8,0.1,1.7,0.3,2.7,0.8c7.9,3.7,7.4,13.9,7.4,13.9s-4.7-4.6-7.8-6.1c-1.6-0.8-3-0.5-4.3-0.2
	c0.8,0.3,1.6,0.7,2.4,1.4c6.7,5.6,3.6,15.3,3.6,15.3s-3.3-5.6-6-7.9c-1.4-1.2-2.8-1.3-4.1-1.3c0.7,0.5,1.3,1.1,2,2
	c5.1,7.1-0.5,15.7-0.5,15.7s-1.8-6.3-3.7-9.2c-1-1.5-2.4-2-3.6-2.3c0.5,0.6,1,1.4,1.4,2.5c3,8.2-4.5,15.1-4.5,15.1s-0.1-6.5-1.2-9.9
	c-0.6-1.7-1.8-2.5-2.9-3.2c0.4,0.7,0.6,1.6,0.7,2.7c0.8,8.7-8.3,13.4-8.3,13.4s1.6-6.3,1.4-9.8c-0.1-1.8-1.1-2.9-2-3.8
	c0.2,0.8,0.2,1.7,0,2.8c-1.5,8.6-11.5,10.8-11.5,10.8s3.2-5.7,3.9-9.2c0.3-1.8-0.3-3.1-0.9-4.2c-0.1,0.8-0.3,1.7-0.8,2.7
	c-3.7,7.9-13.9,7.5-13.9,7.5s4.6-4.7,6.1-7.8c0.8-1.6,0.5-3,0.2-4.3c-0.3,0.8-0.7,1.6-1.4,2.4c-5.6,6.7-15.3,3.6-15.3,3.6
	s5.6-3.3,8-6c1.2-1.3,1.3-2.8,1.3-4.1c-0.5,0.7-1.1,1.3-2,2c-7.1,5-15.7-0.5-15.7-0.5S240,8.9,243,7c1.5-1,2-2.4,2.3-3.6
	c-0.6,0.5-1.4,1-2.5,1.4c-8.2,3-15.1-4.5-15.1-4.5s6.5-0.1,9.9-1.2c1.7-0.6,2.5-1.8,3.2-2.9c-0.7,0.3-1.6,0.6-2.7,0.7
	c-8.7,0.8-13.4-8.3-13.4-8.3s6.3,1.6,9.8,1.4c1.8-0.1,2.9-1.1,3.8-2c-0.8,0.1-1.7,0.2-2.8,0c-8.6-1.5-10.8-11.5-10.8-11.5
	s5.7,3.2,9.2,3.9c1.8,0.4,3.1-0.3,4.2-0.9c-0.8-0.1-1.7-0.3-2.7-0.8c-7.9-3.7-7.5-13.9-7.5-13.9s4.7,4.6,7.8,6.1
	c1.6,0.8,3,0.5,4.3,0.2c-0.8-0.3-1.6-0.7-2.4-1.4c-6.7-5.6-3.6-15.3-3.6-15.3s3.3,5.6,6,7.9c1.4,1.2,2.8,1.3,4.1,1.3
	c-0.7-0.5-1.3-1.1-2-2c-5-7.1,0.5-15.7,0.5-15.7s1.8,6.3,3.7,9.2c1,1.5,2.4,2,3.6,2.3c-0.5-0.6-1-1.4-1.4-2.5
	c-3-8.2,4.5-15.1,4.5-15.1s0.1,6.5,1.2,9.9c0.6,1.7,1.8,2.5,2.9,3.2c-0.3-0.7-0.6-1.6-0.7-2.7c-0.8-8.7,8.3-13.4,8.3-13.4
	s-1.6,6.3-1.4,9.8c0.1,1.8,1.1,2.9,2,3.8c0,0,0-0.1,0-0.1c0-0.1,0-0.1,0-0.2c0,0,0-0.1,0-0.1c0-0.1,0-0.2,0-0.2c0,0,0,0,0-0.1
	c0-0.1,0-0.2,0-0.3c0,0,0,0,0-0.1c0-0.1,0-0.2,0-0.3v0c0-0.1,0-0.2,0-0.3v0c0-0.1,0-0.2,0-0.4v0c0-0.1,0-0.2,0-0.4l0,0
	c0-0.1,0-0.3,0.1-0.4l0,0l0,0c0-0.1,0-0.3,0.1-0.4l0,0c0-0.1,0.1-0.3,0.1-0.4l0,0c0-0.1,0.1-0.3,0.1-0.4l0,0c0-0.1,0.1-0.2,0.1-0.4
	l0,0c0-0.1,0.1-0.2,0.1-0.4l0,0c0.1-0.1,0.1-0.2,0.1-0.4l0,0c0-0.1,0.1-0.2,0.1-0.3l0,0c0.1-0.1,0.1-0.2,0.2-0.3l0,0
	c0.1-0.1,0.1-0.2,0.2-0.3l0,0c0.1-0.1,0.1-0.2,0.2-0.3l0,0c0.2-0.4,0.5-0.8,0.8-1.2l0,0c0.1-0.1,0.1-0.2,0.2-0.3l0,0
	c0.1-0.1,0.1-0.2,0.2-0.3l0,0c0.4-0.4,0.7-0.9,1.1-1.2l0,0c0.2-0.2,0.3-0.3,0.5-0.4l0,0c0.1-0.1,0.2-0.1,0.2-0.2l0,0
	c0.1-0.1,0.2-0.1,0.2-0.2l0,0c0.2-0.1,0.3-0.3,0.5-0.4l0,0c0.4-0.3,0.9-0.6,1.3-0.9c0.1,0,0.2-0.1,0.2-0.1l0,0
	c0.1-0.1,0.2-0.1,0.2-0.2l0,0c0.1,0,0.2-0.1,0.3-0.1l0,0c0.1,0,0.2-0.1,0.2-0.1l0,0c0.1,0,0.2-0.1,0.2-0.1l0,0
	c0.1,0,0.2-0.1,0.2-0.1c0.2-0.1,0.3-0.2,0.5-0.2l0,0c0.1,0,0.2-0.1,0.2-0.1l0,0c0.1,0,0.2-0.1,0.2-0.1l0,0c0.1,0,0.2-0.1,0.2-0.1
	l0,0c0.1,0,0.1-0.1,0.2-0.1l0,0c0.1,0,0.1-0.1,0.2-0.1c0.1,0,0.1-0.1,0.2-0.1l0,0c0.1,0,0.1,0,0.2-0.1l0,0c0.1,0,0.1,0,0.2-0.1
	c0.1,0,0.2-0.1,0.3-0.1c0.1,0,0.1,0,0.2-0.1c0.1,0,0.1,0,0.2,0c0.1,0,0.1,0,0.2-0.1c0,0,0.1,0,0.1,0c0,0,0.1,0,0.1,0
	c0,0,0.1,0,0.1,0c0,0,0.1,0,0.1,0c0,0,0.1,0,0.1,0c0,0,0.1,0,0.1,0c0,0,0.1,0,0.1,0c0,0,0,0,0.1,0c0,0,0,0,0,0h0l0,0l0,0v0l0,0l0,0
	l0,0l0,0l0,0l0,0.1l0,0.1l0,0.1l0,0.1c0,0-0.1,0.1-0.1,0.2l0,0.1l-0.1,0.1c0,0,0,0.1-0.1,0.1l0,0c0,0,0,0.1-0.1,0.1l0,0
	c0,0,0,0.1-0.1,0.1c0,0,0,0.1-0.1,0.1c0,0,0,0.1-0.1,0.1l0,0c0,0,0,0.1-0.1,0.1c0,0.1-0.1,0.1-0.1,0.1l0,0c0,0.1-0.1,0.1-0.1,0.1
	l0,0c0,0.1-0.1,0.1-0.1,0.1c0,0.1,0,0.1-0.1,0.2l0,0c0,0.1-0.1,0.1-0.1,0.2l0,0c0,0.1,0,0.1-0.1,0.2l0,0c0,0.1-0.1,0.1-0.1,0.2l0,0
	c0,0.1-0.1,0.1-0.1,0.2l0,0c0,0.1-0.1,0.1-0.1,0.2l0,0c-0.1,0.1-0.1,0.2-0.2,0.3l0,0c0,0.1-0.1,0.1-0.1,0.2l0,0
	c0,0.1-0.1,0.1-0.1,0.2l0,0c-0.1,0.2-0.2,0.5-0.3,0.7l0,0c0,0.1-0.1,0.1-0.1,0.2l0,0c0,0.1-0.1,0.1-0.1,0.2l0,0
	c0,0.1-0.1,0.1-0.1,0.2l0,0c-0.1,0.1-0.1,0.2-0.2,0.4l0,0c-0.1,0.1-0.1,0.3-0.2,0.4l0,0c0,0.1-0.1,0.1-0.1,0.2l0,0
	c0,0.1-0.1,0.1-0.1,0.2l0,0c-0.1,0.1-0.1,0.3-0.2,0.4l0,0c-0.1,0.2-0.2,0.4-0.2,0.6l0,0c-0.1,0.2-0.1,0.4-0.2,0.6l0,0
	c0,0.1,0,0.1-0.1,0.2l0,0c0,0.1,0,0.1-0.1,0.2l0,0c0,0.1,0,0.1-0.1,0.2l0,0c0,0.1,0,0.1-0.1,0.2c0,0.1,0,0.1-0.1,0.2l0,0
	c0,0.1,0,0.1,0,0.2c0,0.1,0,0.1,0,0.2c0,0.1,0,0.1,0,0.2c0,0.1,0,0.1,0,0.2c0,0,0,0.1,0,0.2c0,0.1,0,0.1,0,0.2l0,0
	c0,0.1,0,0.1,0,0.2l0,0c0,0,0,0.1,0,0.1v0c0,0.1,0,0.1,0,0.1v0c0,0.1,0,0.1,0,0.2h0c0,0.1,0,0.1,0,0.1v0c0,0.1,0,0.1,0,0.1v0
	c0,0,0,0.1,0,0.1v0c0,0.1,0,0.1,0,0.1v0c0,0,0,0.1,0,0.1v0c0,0,0,0.1,0,0.1v0c0,0,0,0.1,0,0.1v0c0,0,0,0.1,0,0.1l0,0
	c0,0,0,0.1,0,0.1l0,0c0,0,0,0.1,0,0.1v0c0,0,0,0.1,0,0.1v0c0,0,0,0.1,0,0.1v0c0,0,0,0.1,0,0.1v0c0,0,0,0.1,0,0.1l0,0
	c0.2,0.6,0.5,1.1,0.7,1.5c0.1-0.8,0.3-1.7,0.8-2.7c3.7-7.9,13.9-7.5,13.9-7.5s-4.6,4.7-6.1,7.8C281.5-50.6,281.8-49.2,282.1-48z"/>
<path class="st19" d="M270.6-49.7c17.9,0,32.3,14.5,32.3,32.3S288.4,15,270.6,15c-17.9,0-32.4-14.5-32.4-32.4S252.7-49.7,270.6-49.7
	z"/>
<path class="st18" d="M270.6-44c14.7,0,26.6,11.9,26.6,26.6c0,14.7-11.9,26.6-26.6,26.6C255.9,9.2,244-2.7,244-17.4
	C244-32.1,255.9-44,270.6-44z"/>
<path class="st20" d="M270.6-37.8c11.3,0,20.4,9.1,20.4,20.4S281.8,3,270.6,3c-11.3,0-20.4-9.1-20.4-20.4S259.3-37.8,270.6-37.8z"/>
<path class="st15" d="M314.8-73.6c4.1,0,8,0.9,11.4,2.4c3.7-3.3,8.8-5.3,14.4-5.3c9.7,0,17.9,6,20.1,14.1c4.9,1.3,8.8,4.6,10.6,8.8
	c0.6-0.1,1.2-0.1,1.8-0.1c9,0,16.3,6.5,16.3,14.6c0,8-7.3,14.6-16.3,14.6c-2.8,0-5.4-0.6-7.7-1.7c-2,6-8.2,10.5-15.6,10.5
	c-4.5,0-8.6-1.6-11.6-4.3c-3,2.7-7.1,4.3-11.6,4.3c-4.3,0-8.2-1.5-11.1-3.9c-3,2.9-7.3,4.7-12,4.7c-4.5,0-8.5-1.6-11.4-4.2
	c-1.3,0.3-2.7,0.4-4.2,0.4c-10.7,0-19.4-7.8-19.4-17.3c0-9.6,8.7-17.3,19.4-17.3c0.6,0,1.2,0,1.7,0.1
	C290.9-64.7,301.7-73.6,314.8-73.6z"/>
<path class="st16" d="M389.4-38.2c-0.5,7.7-7.6,13.8-16.3,13.8c-2.8,0-5.4-0.6-7.7-1.7c-2,6-8.2,10.5-15.6,10.5
	c-4.5,0-8.6-1.6-11.6-4.3c-3,2.7-7.1,4.3-11.6,4.3c-4.3,0-8.2-1.5-11.1-3.9c-3,2.9-7.3,4.7-12,4.7c-4.5,0-8.5-1.6-11.4-4.2
	c-1.3,0.3-2.7,0.4-4.2,0.4c-10.7,0-19.4-7.8-19.4-17.3c0-1,0.1-2,0.3-3c0,0.4,0,0.8,0,1.1c0,9.6,8.7,17.3,19.4,17.3
	c1.4,0,2.8-0.1,4.2-0.4c2.9,2.6,7,4.2,11.4,4.2c4.8,0,9.1-1.8,12-4.7c2.9,2.4,6.8,3.9,11.1,3.9c4.5,0,8.6-1.6,11.6-4.3
	c3,2.7,7.1,4.3,11.6,4.3c7.4,0,13.7-4.4,15.6-10.5c2.3,1.1,4.9,1.7,7.7,1.7C381.3-26.3,388-31.5,389.4-38.2z M329.1-45.1
	c-20.4-1.9-21.9,16.9-6,20.4c14.3,3.1,19.8-10.6,7.8-14.8c-10.6-3.7-16.4,6.2-8.2,9.6c5.7,2.4,10-2,6.6-4.4
	c-1.8-1.3-3.2,0.1-4.2-1.3c3.4-3.7,11.9,3,5.6,6.8c-7.5,4.6-19.7-5.2-10.8-11.2c8.6-5.7,24.5,3.8,17.6,12.5
	c-7.1,9.1-28.4,2.4-26.8-9.2c1.9-13.6,29.6-13.1,35.7,2.1c0.7,1.6,1.5,5.5-0.1,6.7c-0.5-0.1-0.6-3.2-0.7-4
	C344.3-38.5,338.2-43.7,329.1-45.1z M305.9-67.7c13.4-4.9,22.3,9.4,12.7,14.7c-8.7,4.8-18.2-4.8-11.6-10.1c5.8-4.6,14,2,9.7,6.1
	c-3,2.8-7.8,0.2-6.4-2.3c0.7-1.3,2.3-0.4,2.4-1.7c-3.9-2.3-7,4.3-1.1,6.2c7.2,2.3,11.5-7.4,2.9-10.5c-8.4-3-15.5,7-7,12.6
	c8.7,5.8,20.8-2.9,14.8-11.7c-7-10.2-26-5.1-24,7.6c0.2,1.3,1.3,4.5,2.9,5.2c0.3-0.2-0.9-2.6-1.2-3.2C298.1-60,300.2-65,305.9-67.7z
	 M274.5-45.6c-11.3,12.8,5,27.2,15.5,18.7c9.5-7.7-0.3-21.2-9.6-15.9c-8.3,4.7-2.1,15.8,4.8,12.6c4.8-2.2,2.9-8.4-0.8-7.7
	c-2,0.4-1.4,2.3-3.1,2c-1.8-5,8.2-6.1,8.7,1c0.6,8.5-13.9,9.9-15.1-0.5c-1.1-10.1,14.8-14.2,19.4-3.2c4.8,11.4-11.1,21.4-20.8,11.9
	c-11.3-11,2.1-29.8,18.5-23.2c1.7,0.7,5.7,2.9,6,4.9c-0.3,0.3-3.2-1.9-3.9-2.3C287.6-51.4,280.1-50.8,274.5-45.6z M350.9-70.8
	c-13.9-5.1-23,9.7-13.1,15.2c8.9,5,18.7-5,12-10.4c-6-4.8-14.5,2.1-10,6.3c3.1,2.9,8.1,0.2,6.6-2.3c-0.8-1.3-2.4-0.5-2.4-1.7
	c4-2.4,7.2,4.5,1.1,6.4c-7.4,2.4-11.9-7.6-3-10.8c8.7-3.1,16,7.3,7.3,13c-9,6-21.5-3-15.2-12c7.2-10.5,26.9-5.3,24.8,7.9
	c-0.2,1.4-1.3,4.7-3,5.3c-0.3-0.2,1-2.7,1.2-3.3C359-62.8,356.8-68,350.9-70.8z M381.6-47c9.5,10-4.2,21.2-13.1,14.6
	c-8-6,0.2-16.6,8.1-12.4c7,3.7,1.8,12.3-4.1,9.8c-4.1-1.8-2.5-6.5,0.7-6c1.7,0.3,1.2,1.8,2.6,1.6c1.5-3.9-7-4.7-7.4,0.7
	c-0.5,6.6,11.8,7.7,12.7-0.4c0.9-7.8-12.5-11.1-16.4-2.5c-4.1,8.9,9.4,16.7,17.6,9.3c9.6-8.6-1.8-23.2-15.7-18.1
	c-1.5,0.5-4.8,2.3-5.1,3.8c0.3,0.2,2.7-1.5,3.3-1.8C370.5-51.6,376.9-51.1,381.6-47z"/>
<path class="st15" d="M16.5,53.7c3.4,0,6.5,0.7,9.4,2c3-2.7,7.2-4.3,11.8-4.3c8,0,14.6,4.9,16.4,11.5c4,1.1,7.2,3.8,8.6,7.2
	c0.5,0,1-0.1,1.4-0.1c7.4,0,13.3,5.3,13.3,11.9c0,6.6-6,11.9-13.3,11.9c-2.3,0-4.4-0.5-6.3-1.4c-1.6,4.9-6.7,8.5-12.8,8.5
	c-3.7,0-7-1.3-9.5-3.5c-2.4,2.2-5.8,3.5-9.5,3.5c-3.5,0-6.7-1.2-9.1-3.2c-2.4,2.4-5.9,3.9-9.8,3.9c-3.6,0-7-1.3-9.4-3.4
	c-1.1,0.2-2.2,0.3-3.4,0.3c-8.8,0-15.9-6.3-15.9-14.2s7.1-14.2,15.9-14.2c0.5,0,0.9,0,1.4,0.1C-3.1,60.9,5.7,53.7,16.5,53.7z"/>
<path class="st16" d="M77.4,82.5c-0.4,6.3-6.2,11.3-13.3,11.3c-2.3,0-4.4-0.5-6.3-1.4c-1.6,4.9-6.7,8.5-12.8,8.5
	c-3.7,0-7-1.3-9.5-3.5c-2.4,2.2-5.8,3.5-9.5,3.5c-3.5,0-6.7-1.2-9.1-3.2c-2.4,2.4-5.9,3.9-9.8,3.9c-3.6,0-7-1.3-9.4-3.4
	c-1.1,0.2-2.2,0.3-3.4,0.3c-8.8,0-15.9-6.3-15.9-14.2c0-0.9,0.1-1.7,0.2-2.5c0,0.3,0,0.6,0,0.9c0,7.8,7.1,14.2,15.9,14.2
	c1.2,0,2.3-0.1,3.4-0.3c2.4,2.1,5.7,3.4,9.4,3.4c3.9,0,7.4-1.5,9.8-3.9c2.4,2,5.6,3.2,9.1,3.2c3.7,0,7-1.4,9.5-3.5
	c2.4,2.2,5.8,3.5,9.5,3.5c6.1,0,11.2-3.6,12.8-8.6c1.9,0.9,4,1.4,6.3,1.4C70.8,92.2,76.2,88.1,77.4,82.5z M28.1,76.9
	c-16.7-1.5-17.9,13.8-4.9,16.6c11.7,2.5,16.2-8.7,6.4-12.1c-8.7-3-13.4,5.1-6.7,7.9c4.7,2,8.2-1.6,5.4-3.6c-1.5-1-2.6,0.1-3.4-1
	c2.8-3.1,9.7,2.4,4.6,5.6c-6.2,3.8-16.1-4.3-8.8-9.1c7-4.7,20,3.1,14.4,10.2c-5.8,7.4-23.2,2-21.9-7.6c1.6-11.1,24.2-10.7,29.2,1.7
	c0.5,1.3,1.2,4.5-0.1,5.5c-0.4-0.1-0.5-2.6-0.6-3.2C40.6,82.3,35.5,78.1,28.1,76.9z M9.2,58.5c11-4,18.2,7.7,10.4,12
	c-7.1,3.9-14.9-4-9.5-8.3c4.8-3.8,11.5,1.6,8,5c-2.4,2.3-6.4,0.1-5.2-1.9c0.6-1,1.9-0.4,2-1.4c-3.2-1.9-5.7,3.5-0.9,5.1
	c5.9,1.9,9.4-6,2.3-8.5c-6.9-2.4-12.7,5.8-5.8,10.3c7.2,4.7,17-2.4,12.1-9.5C16.8,53,1.2,57.1,2.9,67.5c0.2,1.1,1,3.7,2.3,4.2
	c0.2-0.1-0.8-2.1-0.9-2.6C2.8,64.8,4.5,60.6,9.2,58.5z M-16.5,76.5C-25.7,87-12.4,98.8-3.8,91.8c7.7-6.2-0.2-17.4-7.9-13
	c-6.8,3.8-1.7,12.9,3.9,10.3c4-1.8,2.4-6.8-0.7-6.3c-1.6,0.3-1.1,1.9-2.5,1.6c-1.4-4.1,6.7-4.9,7.1,0.8c0.5,7-11.4,8.1-12.3-0.4
	C-17,76.5-4,73.1-0.2,82.1c3.9,9.3-9.1,17.5-17,9.7c-9.2-9,1.7-24.3,15.1-19c1.4,0.6,4.6,2.4,4.9,4c-0.3,0.2-2.6-1.6-3.2-1.9
	C-5.8,71.8-11.9,72.2-16.5,76.5z M45.9,56c-11.3-4.1-18.8,7.9-10.7,12.4c7.3,4.1,15.3-4.1,9.8-8.5c-4.9-3.9-11.8,1.7-8.2,5.1
	c2.5,2.4,6.6,0.1,5.4-1.9c-0.6-1.1-1.9-0.4-2-1.4c3.3-2,5.9,3.6,0.9,5.2c-6,1.9-9.7-6.2-2.4-8.8c7.1-2.5,13,5.9,5.9,10.7
	c-7.4,4.9-17.5-2.5-12.5-9.8c5.9-8.6,22-4.3,20.2,6.4c-0.2,1.1-1.1,3.8-2.4,4.4c-0.2-0.1,0.8-2.2,1-2.7C52.5,62.5,50.7,58.2,45.9,56
	z M71,75.4c7.8,8.1-3.4,17.3-10.7,11.9c-6.5-4.9,0.2-13.5,6.6-10.2c5.7,3,1.5,10-3.3,8c-3.4-1.4-2-5.3,0.6-4.9
	c1.4,0.2,1,1.5,2.1,1.3c1.2-3.2-5.7-3.9-6,0.6c-0.4,5.4,9.6,6.3,10.4-0.3c0.8-6.4-10.2-9.1-13.4-2.1C54,87,65,93.3,71.7,87.3
	c7.8-7-1.5-19-12.8-14.8c-1.2,0.4-3.9,1.9-4.1,3.1c0.2,0.2,2.2-1.2,2.7-1.5C62,71.7,67.2,72,71,75.4z"/>
<polygon class="st21" points="337.9,380.7 343.7,380.7 343.7,400.7 337.9,400.7 "/>
<path class="st22" d="M333.4,371.8h14.8c1.3,0,2.4,1.1,2.4,2.4v8.8c0,1.3-1.1,2.4-2.4,2.4h-14.8c-1.3,0-2.4-1.1-2.4-2.4v-8.8
	C331,372.9,332.1,371.8,333.4,371.8z"/>
<path class="st23" d="M333.4,373.2h14.8c0.5,0,1,0.4,1,1v8.8c0,0.5-0.4,1-1,1h-14.8c-0.5,0-1-0.5-1-1v-8.8
	C332.4,373.7,332.9,373.2,333.4,373.2z"/>
<path class="st24" d="M181.3,377.7h5.6c1.5,0-0.2,1.3,0.1,2.8l4,28.2h27.9c1.5,0,2.8,1.3,2.8,2.8v1.8c0,1.5-1.3,2.8-2.8,2.8H216
	v16.6h-22.9v-16.6h-7.8c-1.5,0-2.8-1.3-2.8-2.8v-2.6v-3l-4-27.2C178.3,379,179.7,377.7,181.3,377.7z M250,402.8l12,6l0.4,5.5
	l-14.2-7.3l-5.3,12.3c-0.9,2-3.2,2.9-5.1,2l0,0c-2-0.9-2.9-3.2-2-5.1l13.6-31.3c0.9-2,3.2-2.9,5.1-2l0,0c2,0.9,2.9,3.2,2,5.1
	L250,402.8z"/>
<g>
	<path class="st23" d="M181.3,377.7h5.6c1.5,0-0.2,1.3,0.1,2.8l4,28.2h1.3l-2.8,7.4h-4.1c-1.5,0-2.8-1.3-2.8-2.8v-2.6v-3l-4-27.2
		C178.3,379,179.7,377.7,181.3,377.7z M199.6,408.7h9.4l-9.1,24h-6.9v-6.8L199.6,408.7z"/>
	<path class="st23" d="M198,432.7h174.2c11.5,0,5.5,9.1,5.5,20.6v19.6c0,0.8,0,1.6-0.1,2.4h27.9v12.3h-33.9c-3.8,3.8-9,6.1-14.7,6.1
		H231.3h-49.9h-74.6l29.1-79.1l44.5,0.4L198,432.7z"/>
</g>
<path class="st22" d="M398.3,489.3h-26.8c-3.8,2.7-9,4.4-14.7,4.4H231.3h-49.9h-74.6l5-9.7h286.5V489.3z"/>
<path class="st24" d="M401.1,465.1h12.8c1.5,0,2.8,1.3,2.8,2.8v27c0,1.5-1.3,2.8-2.8,2.8h-12.8c-1.5,0-2.8-1.2-2.8-2.8v-27
	C398.3,466.4,399.6,465.1,401.1,465.1z"/>
<path class="st25" d="M272.7,389.6l95.9,7.8c18.6,1.5,24.6,20,24.6,40.5v8.7c0,20.5,1,26.3-17.6,26.3h-80
	c-18.7,0-33.9-16.8-33.9-37.3v-8.7C261.6,406.4,254,388.1,272.7,389.6z"/>
<path class="st26" d="M392.8,429.9c0.2,2.6,0.3,5.3,0.3,8v8.7c0,20.5,1,26.3-17.6,26.3h-80c-18.7,0-33.9-16.8-33.9-37.3v-8.7
	c0-10.1-1.8-19.6-1.5-26.6l105.5,7.2C381,408.6,389.2,417.7,392.8,429.9z"/>
<path class="st24" d="M304.9,326.5v2.9v7.1c4.5,0,8.1,3.6,8.1,8.1v20.3c0,4.4-3.6,8.1-8.1,8.1v17.9h4.7c1.9,0,3.5,1.9,3.5,4.2l0,0
	c0,2.3-1.6,4.2-3.5,4.2H290c-1.9,0-3.5-1.9-3.5-4.2l0,0c0-2.3,1.6-4.2,3.5-4.2h6.5V373h-1.9c-4.5,0-8.1-3.6-8.1-8.1v-20.3
	c0-4.5,3.6-8.1,8.1-8.1h1.9v-11.1v-3.6c0-5.9,8.6-9.5,13-8.5v6.5c-2.7-0.4-4.6,1.1-4.6,2.2C304.9,323.5,304.9,325,304.9,326.5z"/>
<path class="st27" d="M158,429.3c2,0.1,3.9,0.4,5.8,0.7l1.6-3.3c0.5-1,1.4-1.7,2.4-1.5l3.1,0.8c1.1,0.3,1.5,1.3,1.4,2.4l-0.1,3.7
	c1.8,0.6,3.6,1.3,5.4,2.1l2.4-2.7c0.7-0.8,1.8-1.3,2.7-0.8l2.8,1.6c1,0.5,1.1,1.7,0.8,2.7l-1,3.5c1.6,1.1,3.2,2.2,4.7,3.4l3-2.1
	c0.9-0.6,2-0.9,2.8-0.1l2.3,2.2c0.8,0.8,0.7,1.9,0.1,2.8l-1.9,3.2c1.3,1.4,2.5,2.9,3.7,4.5l3.4-1.3c1-0.4,2.2-0.3,2.8,0.6l1.7,2.7
	c0.6,0.9,0.2,2-0.6,2.8l-2.6,2.6c0.9,1.7,1.7,3.4,2.5,5.2l3.6-0.4c1.1-0.1,2.2,0.2,2.5,1.3l1,3.1c0.3,1-0.3,2-1.3,2.5l-3.2,1.9
	c0.4,1.9,0.8,3.8,1.1,5.7l3.6,0.5c1.1,0.2,2.1,0.8,2.1,1.9l0.2,3.2c0.1,1.1-0.8,1.8-1.9,2.1l-3.5,1c0,2-0.2,3.9-0.4,5.8l3.4,1.4
	c1,0.4,1.8,1.3,1.6,2.3l-0.6,3.2c-0.2,1.1-1.3,1.6-2.3,1.6l-3.7,0.1c-0.5,1.9-1.1,3.7-1.8,5.5l2.9,2.2c0.9,0.7,1.4,1.7,1,2.7
	l-1.4,2.9c-0.5,1-1.6,1.2-2.7,1l-3.6-0.8c-1,1.7-2,3.3-3.1,4.9l2.3,2.9c0.7,0.9,1,2,0.3,2.8l-2,2.5c-0.7,0.9-1.9,0.8-2.8,0.3
	l-3.3-1.7c-1.3,1.4-2.7,2.7-4.2,4l1.5,3.4c0.5,1,0.5,2.2-0.4,2.8l-2.6,1.9c-0.9,0.7-2,0.3-2.8-0.4l-2.7-2.4c-1.6,1-3.3,1.9-5.1,2.8
	l0.6,3.6c0.2,1.1-0.1,2.2-1.1,2.6l-3,1.2c-1,0.4-2-0.2-2.6-1.1l-2-3c-1.8,0.6-3.7,1-5.6,1.4l-0.3,3.6c-0.1,1.1-0.6,2.1-1.7,2.3
	l-3.2,0.4c-1.1,0.2-1.9-0.7-2.2-1.7l-1.2-3.5c-0.9,0.1-1.9,0.1-2.9,0.1c-1,0-2,0-2.9-0.1l-1.2,3.5c-0.4,1-1.2,1.9-2.3,1.7l-3.2-0.4
	c-1.1-0.1-1.6-1.2-1.7-2.3l-0.3-3.6c-1.9-0.4-3.8-0.9-5.6-1.4l-2,3c-0.6,0.9-1.6,1.5-2.6,1.1l-3-1.2c-1-0.4-1.3-1.5-1.1-2.6l0.6-3.6
	c-1.7-0.9-3.4-1.8-5.1-2.8l-2.7,2.4c-0.8,0.7-1.9,1.1-2.8,0.5l-2.6-1.9c-0.9-0.6-0.9-1.8-0.5-2.8l1.5-3.4c-1.5-1.3-2.9-2.6-4.2-4
	l-3.3,1.7c-1,0.5-2.1,0.6-2.8-0.3l-2-2.5c-0.7-0.9-0.4-2,0.3-2.8l2.3-2.9c-1.1-1.6-2.2-3.2-3.1-4.9l-3.6,0.8c-1.1,0.2-2.2,0-2.7-1
	l-1.4-2.9c-0.5-1,0.1-2,0.9-2.7l2.9-2.2c-0.7-1.8-1.3-3.6-1.8-5.5l-3.6-0.1c-1.1,0-2.2-0.5-2.4-1.6l-0.6-3.2
	c-0.2-1.1,0.6-1.9,1.6-2.3l3.4-1.5c-0.2-1.9-0.3-3.8-0.4-5.8l-3.5-1c-1.1-0.3-2-1-1.9-2.1l0.2-3.2c0.1-1.1,1-1.7,2.1-1.9l3.6-0.6
	c0.3-1.9,0.6-3.8,1.1-5.7l-3.2-1.9c-1-0.5-1.6-1.5-1.3-2.5l1-3c0.3-1.1,1.4-1.4,2.5-1.3l3.6,0.4c0.7-1.8,1.6-3.6,2.5-5.2l-2.6-2.6
	c-0.8-0.8-1.2-1.8-0.6-2.8l1.7-2.7c0.6-0.9,1.7-1,2.8-0.6l3.4,1.3c1.2-1.6,2.4-3,3.7-4.5l-1.9-3.1c-0.6-0.9-0.7-2.1,0.1-2.8l2.3-2.2
	c0.8-0.8,1.9-0.5,2.8,0.1l3,2.1c1.5-1.2,3.1-2.3,4.7-3.4l-1-3.5c-0.3-1.1-0.2-2.2,0.8-2.7l2.8-1.6c1-0.5,2,0,2.7,0.8l2.4,2.7
	c1.7-0.8,3.5-1.5,5.4-2.1l-0.1-3.7c0-1.1,0.4-2.2,1.4-2.4l3.1-0.8c1.1-0.3,2,0.5,2.4,1.4l1.6,3.3c1.9-0.3,3.9-0.6,5.8-0.7l0.8-3.6
	c0.2-1.1,0.9-2,2-2h3.2c1.1,0,1.8,0.9,2,2L158,429.3z"/>
<path class="st16" d="M155.3,454.9c17.4,0,31.5,14.1,31.5,31.5c0,17.4-14.1,31.5-31.5,31.5c-17.4,0-31.5-14.1-31.5-31.5
	C123.8,469,137.9,454.9,155.3,454.9z"/>
<path class="st27" d="M325.3,455.1c1.5,0.1,3,0.3,4.5,0.6l1.3-2.6c0.4-0.8,1.1-1.4,1.9-1.1l2.5,0.6c0.8,0.2,1.2,1.1,1.1,1.9
	l-0.1,2.9c1.5,0.5,2.9,1.1,4.2,1.7l1.9-2.2c0.6-0.7,1.4-1,2.1-0.6l2.2,1.2c0.8,0.4,0.9,1.3,0.6,2.2l-0.8,2.8
	c1.3,0.8,2.5,1.7,3.7,2.7l2.4-1.6c0.7-0.5,1.6-0.7,2.2-0.1l1.8,1.7c0.6,0.6,0.5,1.5,0.1,2.2l-1.5,2.5c1,1.1,2,2.3,2.9,3.5l2.7-1
	c0.8-0.3,1.7-0.2,2.2,0.5l1.4,2.1c0.5,0.7,0.1,1.6-0.5,2.2l-2,2c0.7,1.3,1.4,2.7,1.9,4.1l2.9-0.3c0.9-0.1,1.7,0.2,2,1l0.8,2.4
	c0.3,0.8-0.3,1.6-1,2l-2.5,1.5c0.4,1.5,0.6,3,0.9,4.5l2.9,0.4c0.9,0.1,1.6,0.6,1.7,1.5l0.2,2.5c0,0.9-0.6,1.4-1.5,1.7l-2.8,0.8
	c0,1.5-0.1,3.1-0.3,4.6l2.7,1.1c0.8,0.3,1.4,1,1.3,1.9l-0.5,2.5c-0.2,0.9-1,1.2-1.8,1.3l-2.9,0.1c-0.4,1.5-0.9,2.9-1.4,4.3l2.3,1.7
	c0.7,0.5,1.1,1.3,0.8,2.1l-1.1,2.3c-0.4,0.8-1.3,0.9-2.1,0.8l-2.8-0.6c-0.8,1.3-1.6,2.6-2.5,3.8l1.8,2.3c0.5,0.7,0.8,1.6,0.2,2.2
	l-1.6,2c-0.5,0.7-1.5,0.6-2.2,0.2l-2.6-1.3c-1,1.1-2.2,2.1-3.3,3.1l1.2,2.7c0.3,0.8,0.4,1.7-0.3,2.2l-2,1.5
	c-0.7,0.5-1.6,0.2-2.2-0.3l-2.2-1.9c-1.3,0.8-2.6,1.5-4,2.2l0.5,2.8c0.2,0.9-0.1,1.7-0.9,2l-2.4,0.9c-0.8,0.3-1.6-0.2-2-0.9
	l-1.6-2.4c-1.4,0.4-2.9,0.8-4.4,1.1l-0.3,2.9c-0.1,0.9-0.5,1.7-1.4,1.8l-2.5,0.3c-0.9,0.1-1.5-0.6-1.8-1.4l-1-2.7
	c-0.7,0-1.5,0.1-2.3,0.1c-0.8,0-1.5,0-2.3-0.1l-1,2.7c-0.3,0.8-0.9,1.5-1.8,1.4l-2.5-0.3c-0.9-0.1-1.3-0.9-1.4-1.8l-0.3-2.9
	c-1.5-0.3-3-0.7-4.4-1.1l-1.6,2.4c-0.5,0.7-1.2,1.2-2,0.9l-2.3-0.9c-0.8-0.3-1-1.2-0.9-2.1l0.5-2.8c-1.4-0.7-2.7-1.4-4-2.2l-2.2,1.9
	c-0.6,0.6-1.5,0.9-2.2,0.4l-2-1.5c-0.7-0.5-0.7-1.4-0.4-2.2l1.2-2.7c-1.2-1-2.3-2-3.3-3.1l-2.6,1.3c-0.8,0.4-1.7,0.5-2.2-0.2l-1.6-2
	c-0.6-0.7-0.3-1.6,0.2-2.2l1.8-2.3c-0.9-1.2-1.7-2.5-2.4-3.9l-2.8,0.6c-0.9,0.2-1.7,0-2.1-0.8l-1.1-2.3c-0.4-0.8,0.1-1.6,0.8-2.1
	l2.3-1.8c-0.5-1.4-1-2.9-1.4-4.3l-2.9-0.1c-0.9,0-1.7-0.4-1.9-1.3l-0.5-2.5c-0.2-0.9,0.5-1.5,1.3-1.9l2.7-1.1
	c-0.2-1.5-0.3-3-0.3-4.5l-2.8-0.8c-0.8-0.2-1.5-0.8-1.5-1.7l0.2-2.5c0.1-0.9,0.8-1.3,1.7-1.5l2.9-0.4c0.2-1.5,0.5-3,0.9-4.5
	l-2.5-1.5c-0.8-0.4-1.3-1.2-1-2l0.8-2.4c0.3-0.8,1.1-1.1,2-1l2.9,0.3c0.6-1.4,1.2-2.8,2-4.1l-2-2c-0.6-0.6-1-1.4-0.5-2.2l1.4-2.1
	c0.5-0.7,1.4-0.8,2.2-0.5l2.7,1c0.9-1.2,1.9-2.4,2.9-3.5l-1.5-2.5c-0.5-0.7-0.6-1.6,0.1-2.2l1.8-1.7c0.6-0.6,1.5-0.4,2.2,0.1
	l2.4,1.6c1.2-0.9,2.4-1.8,3.7-2.7l-0.8-2.8c-0.3-0.8-0.2-1.7,0.6-2.2l2.2-1.2c0.8-0.4,1.6,0,2.2,0.6l1.9,2.2
	c1.4-0.6,2.8-1.2,4.2-1.7l-0.1-2.9c0-0.9,0.3-1.7,1.1-1.9l2.4-0.6c0.8-0.2,1.5,0.4,1.9,1.1l1.3,2.6c1.5-0.3,3-0.5,4.6-0.6l0.6-2.8
	c0.2-0.9,0.7-1.6,1.6-1.6h2.5c0.9,0,1.4,0.7,1.6,1.6L325.3,455.1z"/>
<path class="st16" d="M323.1,475.2c13.7,0,24.8,11.1,24.8,24.8c0,13.7-11.1,24.8-24.8,24.8c-13.7,0-24.8-11.1-24.8-24.8
	C298.4,486.3,309.5,475.2,323.1,475.2z"/>
<path class="st26" d="M122.8,411.5h58.9l43.7,44l-6.5,2.8l-38.7-38.1l-55.3-0.6l-33.7,30.3c0,0-4.4-4.4-4.1-5.1
	C87.3,444.2,122.8,411.5,122.8,411.5z"/>
<path class="st24" d="M265.2,461.7h-32c-2,0-3.6,1.6-3.6,3.6v13.8c0,2,1.6,3.6,3.6,3.6h32c2,0,3.6-1.6,3.6-3.6v-13.8
	C268.8,463.3,267.2,461.7,265.2,461.7z"/>
<path class="st28" d="M355.7,417.5h-60.8c-4.2,0-7.6,3.4-7.6,7.6v0c0,4.2,3.4,7.6,7.6,7.6h60.8c4.2,0,7.6-3.4,7.6-7.6v0
	C363.3,420.9,359.9,417.5,355.7,417.5z"/>
<path class="st3" d="M348.2,375.6h-1.5v6h1.5V375.6z M335.7,375.6h-1.5v6h1.5V375.6z M338.8,375.6h-1.5v6h1.5V375.6z M342,375.6
	h-1.5v6h1.5V375.6z M345.1,375.6h-1.5v6h1.5V375.6z"/>
<path class="st29" d="M319.6,297.6c3.8-0.8,7.4,1.6,8.2,5.4c0.8,3.8-1.6,7.4-5.4,8.2c-3.8,0.8-7.4-1.6-8.2-5.4
	C313.5,302,315.9,298.3,319.6,297.6z M275.5,211.7c2.6,2.3,4.6,5.4,5.3,9.1c1.8,8.8-3.9,17.4-12.7,19.2c-6.9,1.4-13.7-1.8-17.2-7.5
	c-17.8,3.5-35.1-8-38.8-25.7c-0.5-2.3-0.7-4.7-0.7-7c-9.3-1-17.3-7.8-19.3-17.5c-2.4-11.9,5.2-23.5,17.1-26
	c10.3-2.1,20.4,3.3,24.5,12.6c1.3-0.4,2.6-0.8,4-1.1c17.9-3.7,35.3,7.8,39,25.7C278.3,199.8,277.7,206.1,275.5,211.7z M266.9,265.9
	c1.5-0.3,3-0.3,4.4,0c2.7-4.7,7.3-8.2,12.9-9.4c10.5-2.2,20.7,4.6,22.9,15.1c2.2,10.5-4.6,20.7-15.1,22.9
	c-7.2,1.5-14.3-1.3-18.8-6.5c-0.6,0.2-1.2,0.4-1.8,0.5c-6.2,1.3-12.3-2.7-13.6-8.9C256.7,273.2,260.7,267.2,266.9,265.9z"/>
<path class="st30" d="M416,245.4c1.3,0,2.4,1.1,2.4,2.4c0,1.3-1.1,2.4-2.4,2.4c-1.3,0-2.4-1.1-2.4-2.4
	C413.6,246.5,414.7,245.4,416,245.4z"/>
<path class="st31" d="M418.2,247.2c0,1.3-1.1,2.4-2.4,2.4c-0.9,0-1.6-0.4-2-1.1c0.3,1,1.2,1.7,2.3,1.7c1.3,0,2.4-1.1,2.4-2.4
	c0-0.5-0.2-0.9-0.4-1.3C418.1,246.7,418.2,246.9,418.2,247.2z"/>
<path class="st15" d="M415.1,246.2c0.3,0,0.5,0.2,0.5,0.5c0,0.3-0.2,0.5-0.5,0.5c-0.3,0-0.5-0.2-0.5-0.5
	C414.6,246.5,414.8,246.2,415.1,246.2z"/>
</svg>
