<?xml version="1.0" encoding="iso-8859-1"?>
<!-- Generator: Adobe Illustrator 19.0.0, SVG Export Plug-In . SVG Version: 6.00 Build 0)  -->
<svg version="1.1" id="Capa_1" xmlns="http://www.w3.org/2000/svg" xmlns:xlink="http://www.w3.org/1999/xlink" x="0px" y="0px"
	 viewBox="0 0 511.999 511.999" style="enable-background:new 0 0 511.999 511.999;" xml:space="preserve">
<path style="fill:#FE9923;" d="M405.916,165.323c-12.393-24.507-31.274-44.795-54.595-58.667
	c-7.307-4.335-9.614-14.014-4.805-21.196c3.97-5.991,8.379-11.235,13.096-15.601c29.18-29.561,73.579-38.672,112.764-22.676
	c12.832,4.849,24.814,12.656,35.229,23.071c5.859,5.859,5.859,15.352,0,21.211L429.91,169.16
	C422.726,176.382,410.509,174.415,405.916,165.323z"/>
<path style="fill:#FEA832;" d="M82.105,169.161L4.395,91.466C-1.391,85.68-1.479,76.32,4.219,70.431
	c9.756-10.078,21.973-18.149,35.361-23.35c38.979-15.938,83.555-6.826,113.291,23.232c4.38,4.38,8.496,9.478,12.246,14.604
	c5.208,7.169,3.151,17.259-4.512,21.782c-23.525,13.843-42.363,34.072-54.448,58.506C101.609,174.428,89.347,176.403,82.105,169.161
	z"/>
<path style="fill:#FEDBAB;" d="M453.802,253.062c2.1-128.699-92.296-200.4-200.896-200.4c-112.8,0-197.1,75.899-195,200.4
	c-70.8,86.7-9,219.6,105,219.6c15.601,0,30.601-2.701,44.7-7.5c14.7,5.099,30,7.5,45.3,7.5c15.3,0,36.497-2.401,51.196-7.5
	c14.099,4.799,29.099,7.5,44.7,7.5C462.801,472.662,524.601,339.762,453.802,253.062z"/>
<path style="fill:#FEC478;" d="M348.802,472.662c-15.601,0-30.601-2.701-44.7-7.5c-14.7,5.099-35.896,7.5-51.196,7.5v-420
	c108.6,0,202.996,71.7,200.896,200.4C524.601,339.762,462.801,472.662,348.802,472.662z"/>
<path style="fill:#FEA832;" d="M252.906,232.662c-58.801,0-105,32.999-105,75c0,41.999,46.199,75,105,75s110.896-33.001,110.896-75
	C363.802,265.661,311.707,232.662,252.906,232.662z"/>
<path style="fill:#FE9923;" d="M363.802,307.662c0,41.999-52.095,75-110.896,75v-150
	C311.707,232.662,363.802,265.661,363.802,307.662z"/>
<circle style="fill:#994C0F;" cx="192.91" cy="187.66" r="15"/>
<circle style="fill:#713708;" cx="318.8" cy="187.66" r="15"/>
<circle style="fill:#994C0F;" cx="222.91" cy="307.66" r="15"/>
<circle style="fill:#713708;" cx="288.8" cy="307.66" r="15"/>
<g>
</g>
<g>
</g>
<g>
</g>
<g>
</g>
<g>
</g>
<g>
</g>
<g>
</g>
<g>
</g>
<g>
</g>
<g>
</g>
<g>
</g>
<g>
</g>
<g>
</g>
<g>
</g>
<g>
</g>
</svg>
