<?xml version="1.0" encoding="iso-8859-1"?>
<!-- Generator: Adobe Illustrator 19.0.0, SVG Export Plug-In . SVG Version: 6.00 Build 0)  -->
<svg version="1.1" id="Capa_1" xmlns="http://www.w3.org/2000/svg" xmlns:xlink="http://www.w3.org/1999/xlink" x="0px" y="0px"
	 viewBox="0 0 512 512" style="enable-background:new 0 0 512 512;" xml:space="preserve">
<path style="fill:#FEA832;" d="M108.3,136c-29.725,0-55.122,9.047-76.5,29.7C11.4,185.799,0,212.5,0,241c0,8.399,6.599,15,15,15
	c28.962,0,48.98,2.245,75-10.201c9-4.499,17.701-9.901,25.201-16.8C118.2,226.3,120,222.1,120,217.899v-42.001
	c0,0,1.166-14.314,2.701-21.599C124.744,144.07,116.834,136,108.3,136z"/>
<path style="fill:#FEDBAB;" d="M421.399,173.5c0.3-1.8,0-3.3-0.3-4.801c-3.6-16.8-27.599-15.3-29.7,1.201c0,0.3,0,0.3,0,0.3
	C386.3,207.1,332,202.599,332,166c0-19.801-30-19.801-30,0v15c0,19.799-30,19.799-30,0c0-9.901-7.5-15-15-15s-15,5.099-15,15
	c0,19.799-30,19.799-30,0v-15c0-19.801-32-19.801-32,0c0,39.899-59.399,37.8-59.399,3.9c-2.401-19.801-33.301-15.601-30,3.6
	C90,175.899,90,178.599,90,181v117.9c-3.9,28.2,13.2,54.3,45.901,70.499c7.5,21.901,15.298,43.801,18.6,52.8
	c12.9,40.501,48.8,67.2,87.499,72.9c5.099,0.601,9.901,0.901,15,0.901s10.201-0.3,15-1.201
	c47.701-6.599,79.501-44.399,85.201-71.699c6.299-18.301,12.299-34.801,18.6-52.8C403.4,358.9,422,331.3,422,301
	C422,296.8,422.3,177.4,421.399,173.5z"/>
<path style="fill:#FE9923;" d="M480.2,165.7c-21.984-21.611-52.174-31.16-76.8-29.399c-9.554,0.634-16.071,9.097-14.101,18.3
	c2.433,10.937,2.1,15.601,2.1,15.601S392,170.505,392,217.899c0,4.2,1.8,8.401,4.799,11.1c7.5,6.899,16.201,12.301,25.201,16.8
	C448.02,258.245,468.038,256,497,256c8.401,0,15-6.601,15-15C512,212.199,500.6,185.499,480.2,165.7z"/>
<path style="fill:#FEC478;" d="M422,301c0,30.3-18.6,57.9-46.199,69.3c-6.301,17.999-12.301,34.499-18.6,52.8
	c-5.7,27.299-37.5,65.099-85.201,71.699c-4.799,0.901-9.901,1.201-15,1.201V166c7.5,0,15,5.099,15,15c0,19.799,30,19.799,30,0v-15
	c0-19.801,30-19.801,30,0c0,36.599,54.3,41.1,59.399,4.2c0,0,0,0,0-0.3c2.1-16.501,26.1-18.001,29.7-1.201
	c0.3,1.501,0.601,3.001,0.3,4.801C422.3,177.4,422,296.8,422,301z"/>
<path style="fill:#E1E4FB;" d="M421.099,168.699c0-6.899-0.899-13.499-2.399-20.4C398.899,63.1,329.001,16,257,16
	c-84.3,0-152.3,63.9-163.7,131.7c-2.399,11.398-2.999,24.3-2.699,25.8C93,192.7,104.1,208.9,120,217.899
	c22.5,13.2,51.301,10.201,70.8-7.8c15,18.001,48.8,20.101,66.2,4.501c17.401,15.601,49.2,13.5,64.2-4.501
	c19.499,18.001,48.3,21,70.8,7.8c15.901-9,27.001-25.199,29.399-44.399C421.7,171.7,421.399,170.2,421.099,168.699z"/>
<path style="fill:#C5C9F7;" d="M421.399,173.5C419,192.7,407.9,208.9,392,217.899c-22.5,13.2-51.301,10.201-70.8-7.8
	c-15,18.001-46.8,20.101-64.2,4.501V16c72.001,0,141.899,47.1,161.7,132.299c1.5,6.901,2.399,13.5,2.399,20.4
	C421.399,170.2,421.7,171.7,421.399,173.5z"/>
<path style="fill:#BF6015;" d="M302,361c0,19.499-12.599,36-30,42.299v91.5c-4.799,0.901-9.901,1.201-15,1.201s-9.901-0.3-15-0.901
	v-91.8c-17.401-6.299-30-22.8-30-42.299c0-8.401,6.599-15,15-15s15,6.599,15,15c0,8.399,6.599,15,15,15s15-6.601,15-15
	c0-8.401,6.599-15,15-15S302,352.599,302,361z"/>
<circle style="fill:#994C0F;" cx="165" cy="271" r="15"/>
<circle style="fill:#713708;" cx="347" cy="271" r="15"/>
<path style="fill:#994C0F;" d="M302,361c0,19.499-12.599,36-30,42.299v91.5c-4.799,0.901-9.901,1.201-15,1.201V376
	c8.401,0,15-6.601,15-15c0-8.401,6.599-15,15-15S302,352.599,302,361z"/>
<g>
</g>
<g>
</g>
<g>
</g>
<g>
</g>
<g>
</g>
<g>
</g>
<g>
</g>
<g>
</g>
<g>
</g>
<g>
</g>
<g>
</g>
<g>
</g>
<g>
</g>
<g>
</g>
<g>
</g>
</svg>
